<svg xmlns="http://www.w3.org/2000/svg" width="72" height="64">
    <path fill="#00990E" fill-rule="evenodd" d="M29.466 56.451a1.623 1.623 0 0 1-1.631-1.615v-9.832c0-.892.73-1.616 1.631-1.616h15.031c.901 0 1.631.724 1.631 1.616v9.832c0 .892-.73 1.615-1.631 1.615H29.466zM69.348 64H2.649c-1.464 0-2.65-1.175-2.65-2.625s1.186-2.625 2.65-2.625h8.675V28.369h-1.17a1.759 1.759 0 0 1-1.767-1.75v-6.066c0-.966.791-1.75 1.767-1.75h5.554L52.29.135a1.25 1.25 0 0 1 1.21.043c.369.223.593.619.593 1.046v2.975c0 .389-.187.755-.503.986l-3.448 2.513V26.95h4.461a1.23 1.23 0 0 1 1.237 1.225v7.454a1.23 1.23 0 0 1-1.237 1.225H43.207a1.232 1.232 0 0 1-1.237-1.225v-7.454c0-.677.555-1.225 1.237-1.225h4.462V9.502L21.05 25.494v1.125c0 .966-.791 1.75-1.767 1.75h-.663V58.75h50.728c1.464 0 2.652 1.175 2.652 2.625S70.812 64 69.348 64zm-3.293-7.548H51.023a1.625 1.625 0 0 1-1.632-1.616v-9.832c0-.892.731-1.616 1.632-1.616h15.032c.9 0 1.63.724 1.63 1.616v9.832c0 .892-.73 1.616-1.63 1.616z"/>
</svg>
