<svg xmlns="http://www.w3.org/2000/svg" width="72" height="62">
    <path fill="#039" fill-rule="evenodd" d="M66.307 61.998H5.69c-3.138 0-5.691-2.559-5.691-5.706V33.704h17.235a19.223 19.223 0 0 0-.135 2.264c0 10.446 8.478 18.946 18.9 18.946 10.421 0 18.9-8.5 18.9-18.946 0-.766-.047-1.522-.136-2.264h17.236v22.588c0 3.147-2.554 5.706-5.692 5.706zM35.999 21.532c7.953 0 14.4 6.463 14.4 14.436 0 7.971-6.447 14.434-14.4 14.434s-14.4-6.463-14.4-14.434c0-7.973 6.447-14.436 14.4-14.436zm-5.992 19.236c.939 1.429 2.42 2.287 4.395 2.555v2.431a1.561 1.561 0 1 0 3.12 0V43.24c1.353-.252 2.453-.774 3.276-1.557.963-.916 1.451-2.07 1.451-3.426 0-.969-.252-1.82-.748-2.531-.495-.711-1.127-1.222-1.874-1.523-.738-.293-1.972-.631-3.659-1.002-.73-.163-1.178-.323-1.332-.473a.725.725 0 0 1-.224-.53c0-.717.752-.868 1.383-.868.783 0 1.385.234 1.793.692a1.557 1.557 0 0 0 1.632.455l.807-.253a1.561 1.561 0 0 0 1.042-1.094 1.562 1.562 0 0 0-.369-1.467c-.794-.852-1.839-1.394-3.178-1.649V26.18c0-.865-.699-1.565-1.56-1.565-.862 0-1.56.7-1.56 1.565v1.8c-1.497.251-2.633.826-3.376 1.714a4.808 4.808 0 0 0-1.158 3.161c0 1.09.346 2.026 1.059 2.863.701.825 2.369 1.512 4.96 2.041.643.132 1.096.287 1.345.46.243.17.356.39.356.694 0 .209 0 .844-1.594.844-1.035 0-1.785-.325-2.228-.961a1.555 1.555 0 0 0-1.565-.646l-1.177.22a1.566 1.566 0 0 0-1.017 2.398zm5.992-23.747c-7.85 0-14.596 4.823-17.449 11.667H-.001V15.025c0-3.145 2.553-5.704 5.691-5.704h16.844V5.354c0-2.952 2.398-5.356 5.343-5.356H44.12c2.947 0 5.343 2.404 5.343 5.356v3.967h16.844c3.138 0 5.692 2.559 5.692 5.704v13.663H53.447c-2.852-6.844-9.598-11.667-17.448-11.667zm7.983-11.528H28.017v3.828h15.965V5.493z"/>
</svg>
