<svg xmlns="http://www.w3.org/2000/svg" width="72" height="68">
    <path fill="#00AEEF" fill-rule="evenodd" d="M69.889 12.748a2.116 2.116 0 0 1-2.109-2.124V7.982L41.709 34.105a2.1 2.1 0 0 1-2.983 0L27.561 22.857 3.599 46.855c-.824.83-2.16.83-2.983 0a2.135 2.135 0 0 1 0-3.005l25.453-25.501a2.1 2.1 0 0 1 2.983 0l11.166 11.248L65.52 4.248h-4.068a2.115 2.115 0 0 1-2.11-2.124c0-1.175.944-2.125 2.11-2.125h8.437c1.167 0 2.11.95 2.11 2.125v8.5a2.115 2.115 0 0 1-2.11 2.124zM12.795 43.744v24.255H2.108a2.116 2.116 0 0 1-2.11-2.126v-8.499c0-.564.222-1.105.618-1.503l12.179-12.127zm12.657 24.255h-8.438V39.494l8.438-8.5v37.005zm12.656 0H29.67V30.994l8.438 8.5v28.505zm12.656 0h-8.437V39.494l8.437-8.5v37.005zM67.78 19.123v46.75a2.117 2.117 0 0 1-2.109 2.126H54.983V26.744l9.197-9.123c1.331-1.341 3.6-.378 3.6 1.502z"/>
</svg>
